<svg width="18" height="18" viewBox="0 0 18 18" fill="none" xmlns="http://www.w3.org/2000/svg">
<path d="M2.5 3.5C2.5 2.94772 2.94772 2.5 3.5 2.5H7.5C8.05228 2.5 8.5 2.94772 8.5 3.5V7.5C8.5 8.05228 8.05228 8.5 7.5 8.5H3.5C2.94772 8.5 2.5 8.05228 2.5 7.5V3.5Z" fill="#0B0B0B"/>
<path d="M2.5 10.5C2.5 9.94772 2.94772 9.5 3.5 9.5H7.5C8.05228 9.5 8.5 9.94772 8.5 10.5V14.5C8.5 15.0523 8.05228 15.5 7.5 15.5H3.5C2.94772 15.5 2.5 15.0523 2.5 14.5V10.5Z" fill="#0B0B0B"/>
<path d="M9.5 10.5C9.5 9.94772 9.94772 9.5 10.5 9.5H14.5C15.0523 9.5 15.5 9.94772 15.5 10.5V14.5C15.5 15.0523 15.0523 15.5 14.5 15.5H10.5C9.94772 15.5 9.5 15.0523 9.5 14.5V10.5Z" fill="#0B0B0B"/>
<path d="M9.5 3.5C9.5 2.94772 9.94772 2.5 10.5 2.5H14.5C15.0523 2.5 15.5 2.94772 15.5 3.5V7.5C15.5 8.05228 15.0523 8.5 14.5 8.5H10.5C9.94772 8.5 9.5 8.05228 9.5 7.5V3.5Z" fill="#0B0B0B"/>
</svg>
