<svg width="18" height="18" viewBox="0 0 18 18" fill="none" xmlns="http://www.w3.org/2000/svg">
<path d="M0.5 3.5C0.5 2.94772 0.947715 2.5 1.5 2.5H2.5C3.05228 2.5 3.5 2.94772 3.5 3.5V4.5C3.5 5.05228 3.05228 5.5 2.5 5.5H1.5C0.947715 5.5 0.5 5.05228 0.5 4.5V3.5Z" fill="#CDCDCD"/>
<path d="M0.5 8.5C0.5 7.94772 0.947715 7.5 1.5 7.5H2.5C3.05228 7.5 3.5 7.94772 3.5 8.5V9.5C3.5 10.0523 3.05228 10.5 2.5 10.5H1.5C0.947715 10.5 0.5 10.0523 0.5 9.5V8.5Z" fill="#CDCDCD"/>
<path d="M0.5 13.5C0.5 12.9477 0.947715 12.5 1.5 12.5H2.5C3.05228 12.5 3.5 12.9477 3.5 13.5V14.5C3.5 15.0523 3.05228 15.5 2.5 15.5H1.5C0.947715 15.5 0.5 15.0523 0.5 14.5V13.5Z" fill="#CDCDCD"/>
<path d="M5.5 13.5C5.5 12.9477 5.94772 12.5 6.5 12.5H16.5C17.0523 12.5 17.5 12.9477 17.5 13.5V14.5C17.5 15.0523 17.0523 15.5 16.5 15.5H6.5C5.94772 15.5 5.5 15.0523 5.5 14.5V13.5Z" fill="#CDCDCD"/>
<path d="M5.5 8.5C5.5 7.94772 5.94772 7.5 6.5 7.5H16.5C17.0523 7.5 17.5 7.94772 17.5 8.5V9.5C17.5 10.0523 17.0523 10.5 16.5 10.5H6.5C5.94772 10.5 5.5 10.0523 5.5 9.5V8.5Z" fill="#CDCDCD"/>
<path d="M5.5 3.5C5.5 2.94772 5.94772 2.5 6.5 2.5H16.5C17.0523 2.5 17.5 2.94772 17.5 3.5V4.5C17.5 5.05228 17.0523 5.5 16.5 5.5H6.5C5.94772 5.5 5.5 5.05228 5.5 4.5V3.5Z" fill="#CDCDCD"/>
</svg>
