<svg width="32" height="32" viewBox="0 0 32 32" fill="none" xmlns="http://www.w3.org/2000/svg">
<path fill-rule="evenodd" clip-rule="evenodd" d="M2 9.8548C2 4.10361 4.10398 2 9.85633 2H22.1437C27.896 2 30 4.10361 30 9.8548V22.1452C30 27.8964 27.8921 30 22.1399 30H9.85633C4.10398 30 2 27.8964 2 22.1452V9.8548ZM15.9997 11.333C13.4262 11.333 11.333 9.23962 11.333 6.66638H11.9922C11.9922 8.87594 13.7901 10.6736 15.9997 10.6736C18.2092 10.6736 20.0072 8.87594 20.0072 6.66638H20.6663C20.6663 9.23962 18.5729 11.333 15.9997 11.333ZM14.2127 18.2393H15.3368L14.7729 16.9277L14.2127 18.2393ZM13.9359 18.9003L13.6024 19.6634H12.8431L14.4578 16.0001H15.114L16.7222 19.6634H15.9426L15.6134 18.9003H13.9359ZM26.1543 19.6607H26.8881V15.9999H26.1543V19.6607ZM23.2334 18.0881H24.5862V17.4206H23.2334V16.6703H25.1971V16.0026H22.4998V19.6632H25.2678V18.9954H23.2334V18.0881ZM20.3175 18.5206L19.4855 15.9999H18.8783L18.0464 18.5206L17.2366 16.0019H16.4449L17.7227 19.6654H18.3382L19.1716 17.259L20.0049 19.6654H20.6258L21.9002 16.0019H21.129L20.3175 18.5206ZM11.7228 18.0982C11.7228 18.6941 11.4269 19.0126 10.8895 19.0126C10.3492 19.0126 10.0517 18.6849 10.0517 18.0728V16.0024H9.30788V18.0982C9.30788 19.1291 9.88084 19.7203 10.8794 19.7203C11.8878 19.7203 12.4659 19.1179 12.4659 18.0676V16.0001H11.7228V18.0982ZM7.53341 16.0001H8.27673V19.6656H7.53341V18.177H5.85412V19.6656H5.11035V16.0001H5.85412V17.4786H7.53341V16.0001Z" fill="white"/>
</svg>
