<svg width="32" height="32" viewBox="0 0 32 32" fill="none" xmlns="http://www.w3.org/2000/svg">
<path d="M23.4504 16.6812C23.4504 16.804 23.2662 20.4272 27.2578 22.331C26.5209 24.6031 23.9417 29.6388 20.9326 29.6388C19.2131 29.6388 18.2305 28.5334 16.2654 28.5334C14.2388 28.5334 13.1335 29.6388 11.5982 29.6388C8.6505 29.7616 5.82562 24.2347 5.02729 21.9625C4.41318 20.243 4.16754 18.5849 4.16754 16.9883C4.16754 11.5227 7.79075 8.88209 11.2297 8.82068C12.8878 8.82068 14.9758 9.98748 15.8969 9.98748C16.7567 9.98748 19.1517 8.57504 21.3624 8.75927C23.6346 8.9435 25.3541 9.80325 26.5209 11.4613C24.4944 12.7509 23.4504 14.409 23.4504 16.6812ZM20.0114 6.60991C18.7832 8.02235 17.3094 8.82068 15.7127 8.69786C15.5899 7.03978 16.204 5.50452 17.3094 4.27632C18.2919 3.17093 20.0114 2.24977 21.4853 2.12695C21.4853 2.80247 21.6695 4.64478 20.0114 6.60991Z" fill="white"/>
</svg>
