<svg width="32" height="32" viewBox="0 0 32 32" fill="none" xmlns="http://www.w3.org/2000/svg">
<path fill-rule="evenodd" clip-rule="evenodd" d="M3.95122 27.8066C5.90243 29.7578 9.04288 29.7578 15.3237 29.7578H16.4341C22.7149 29.7578 25.8554 29.7578 27.8066 27.8066C29.7578 25.8554 29.7578 22.7149 29.7578 16.434V16.434V15.3237V15.3237C29.7578 9.04278 29.7578 5.9023 27.8066 3.9511C25.8554 2 22.7149 2 16.4341 2H15.3237C9.04288 2 5.90243 2 3.95122 3.95111C2 5.90233 2 9.04278 2 15.3237V16.434C2 22.7149 2 25.8554 3.95122 27.8066ZM20.039 19.6021L20.0433 19.6032V21.231C20.0433 22.1025 19.2198 22.7416 18.3703 22.5295L16.4447 22.0484C16.2432 21.9699 16.1045 21.778 16.097 21.5576L15.863 14.6542C15.7953 13.7405 15.1171 13.0138 14.4083 12.7998C14.3685 12.7878 14.326 12.804 14.3025 12.8382C14.2785 12.873 14.2878 12.9212 14.3212 12.9471C14.4962 13.0825 14.9779 13.5247 14.9779 14.2873L14.9765 21.6806L15.258 21.752L14.9808 21.6827V23.314C14.9808 24.1855 14.1573 24.8247 13.3078 24.6124L7.9285 23.2687C7.18062 23.0818 6.65625 22.4129 6.65625 21.6456V12.606C6.65625 11.7345 7.47974 11.0954 8.32919 11.3076L11.7188 12.1543V10.523C11.7188 9.65154 12.5423 9.01235 13.3917 9.22454L16.7812 10.0713V8.44293C16.7812 7.57143 17.6048 6.93228 18.4542 7.14447L23.8336 8.48826C24.5814 8.67506 25.1058 9.34405 25.1058 10.1113V19.1509C25.1058 20.0224 24.2823 20.6616 23.4329 20.4494L21.5422 19.9771C21.322 19.909 21.1674 19.7085 21.1596 19.4761L20.9255 12.5731C20.8578 11.6594 20.1796 10.9328 19.4708 10.7188C19.431 10.7068 19.3886 10.723 19.365 10.7572C19.341 10.792 19.3503 10.8401 19.3837 10.866C19.5587 11.0015 20.0404 11.4436 20.0404 12.2062L20.039 19.6021Z" fill="white"/>
</svg>
