<svg width="22" height="22" viewBox="0 0 22 22" fill="none" xmlns="http://www.w3.org/2000/svg">
<path fill-rule="evenodd" clip-rule="evenodd" d="M14.9902 17.3565C15.1915 17.5047 15.4509 17.5417 15.6821 17.4507C15.9134 17.3591 16.0834 17.1537 16.1346 16.9047C16.6777 14.2501 17.9952 7.53105 18.4896 5.1163C18.5271 4.9343 18.4646 4.74515 18.3271 4.6236C18.1896 4.50205 17.999 4.46695 17.829 4.5326C15.2084 5.5414 7.13775 8.69065 3.839 9.9601C3.62962 10.0407 3.49337 10.25 3.50025 10.4795C3.50775 10.7096 3.6565 10.9091 3.87087 10.9761C5.35025 11.4363 7.29212 12.0765 7.29212 12.0765C7.29212 12.0765 8.19962 14.9268 8.67275 16.3763C8.73212 16.5583 8.869 16.7013 9.04962 16.7507C9.22962 16.7994 9.42212 16.7481 9.5565 16.6161C10.3165 15.8699 11.4915 14.7162 11.4915 14.7162C11.4915 14.7162 13.724 16.4185 14.9902 17.3565ZM8.109 11.7164L9.15837 15.3161L9.3915 13.0366C9.3915 13.0366 13.4459 9.2334 15.7571 7.06565C15.8246 7.00195 15.834 6.89535 15.7777 6.8206C15.7221 6.74585 15.6196 6.7283 15.5427 6.779C12.864 8.55805 8.109 11.7164 8.109 11.7164Z" fill="#EDEDED"/>
</svg>
