<svg width="12" height="12" viewBox="0 0 12 12" fill="none" xmlns="http://www.w3.org/2000/svg">
<path d="M7.5 2C5.29 2 3.5 3.79 3.5 6C3.5 8.21 5.29 10 7.5 10C9.71 10 11.5 8.21 11.5 6C11.5 3.79 9.71 2 7.5 2ZM7.5 9C5.845 9 4.5 7.655 4.5 6C4.5 4.345 5.845 3 7.5 3C9.155 3 10.5 4.345 10.5 6C10.5 7.655 9.155 9 7.5 9ZM1.5 6C1.5 4.805 2.2 3.77 3.215 3.29C3.385 3.21 3.5 3.055 3.5 2.87V2.775C3.5 2.435 3.145 2.22 2.84 2.365C1.46 2.995 0.5 4.385 0.5 6C0.5 7.615 1.46 9.005 2.84 9.635C3.145 9.775 3.5 9.565 3.5 9.225V9.135C3.5 8.95 3.385 8.79 3.215 8.71C2.2 8.23 1.5 7.195 1.5 6Z" fill="#0B0B0B"/>
</svg>
