<svg width="1360" height="266" viewBox="0 0 1360 266" fill="none" xmlns="http://www.w3.org/2000/svg">
<path d="M398.22 4.81539L282.154 263.995C281.928 264.498 281.562 264.925 281.1 265.225C280.637 265.525 280.098 265.686 279.546 265.688H235.397C234.919 265.686 234.449 265.566 234.03 265.336C233.611 265.107 233.256 264.777 232.997 264.376C232.738 263.975 232.583 263.516 232.547 263.04C232.511 262.564 232.594 262.086 232.79 261.651L278.199 159.932C278.504 159.181 278.504 158.34 278.199 157.588L210.237 4.81539C210.041 4.37981 209.958 3.90236 209.994 3.42638C210.03 2.9504 210.185 2.49096 210.444 2.08984C210.703 1.68873 211.058 1.35868 211.477 1.12957C211.896 0.90046 212.366 0.779572 212.844 0.777949H256.907C257.477 0.772762 258.035 0.940133 258.508 1.25782C258.981 1.57551 259.347 2.02879 259.557 2.55806L301.274 101.194C301.481 101.721 301.843 102.174 302.312 102.494C302.781 102.813 303.335 102.984 303.903 102.984C304.47 102.984 305.024 102.813 305.493 102.494C305.962 102.174 306.324 101.721 306.532 101.194L348.552 2.55806C348.772 2.03558 349.14 1.58862 349.611 1.27239C350.082 0.956166 350.635 0.784305 351.203 0.777949H395.613C396.086 0.790245 396.55 0.918051 396.963 1.14998C397.376 1.3819 397.727 1.71106 397.984 2.10892C398.241 2.50678 398.396 2.96132 398.438 3.43301C398.479 3.90469 398.404 4.37908 398.22 4.81539Z" fill="#0B0B0B"/>
<path d="M571.525 45.4919H521.162C520.401 45.4919 519.671 45.794 519.133 46.3313C518.596 46.8687 518.294 47.5974 518.294 48.3573V180.031C518.294 180.791 517.991 181.52 517.454 182.057C516.916 182.594 516.186 182.896 515.426 182.896H473.362C472.984 182.902 472.608 182.832 472.257 182.69C471.907 182.548 471.588 182.337 471.321 182.07C471.053 181.803 470.842 181.485 470.7 181.134C470.558 180.784 470.488 180.409 470.494 180.031V48.3573C470.483 47.6009 470.177 46.8784 469.641 46.3435C469.106 45.8086 468.383 45.5031 467.626 45.4919H417.523C416.762 45.4919 416.033 45.19 415.495 44.6527C414.957 44.1153 414.655 43.3866 414.655 42.6267V3.55441C414.655 2.79449 414.957 2.06576 415.495 1.52841C416.033 0.99106 416.762 0.688965 417.523 0.688965H571.525C572.286 0.688965 573.015 0.99106 573.553 1.52841C574.091 2.06576 574.393 2.79449 574.393 3.55441V42.6267C574.393 43.3866 574.091 44.1153 573.553 44.6527C573.015 45.19 572.286 45.4919 571.525 45.4919Z" fill="#0B0B0B"/>
<path d="M90.9752 0.822266C78.2714 0.843142 65.7119 3.51391 54.1007 8.66343C42.4895 13.8129 32.0824 21.3277 23.5457 30.7269C15.0089 40.1261 8.5306 51.2028 4.52536 63.2474C0.520119 75.292 -0.923752 88.0394 0.286152 100.674C4.63158 147.995 47.3036 182.769 94.8861 182.769H186.14C186.897 182.758 187.62 182.452 188.156 181.917C188.691 181.382 188.997 180.66 189.008 179.904V3.68745C189.008 2.92752 188.706 2.19879 188.168 1.66144C187.63 1.1241 186.901 0.822266 186.14 0.822266H90.9752ZM138.775 138.227H51.8664C51.1092 138.215 50.3862 137.91 49.8508 137.375C49.3153 136.84 49.0096 136.118 48.9984 135.361V48.5338C49.0096 47.7774 49.3153 47.0552 49.8508 46.5203C50.3862 45.9853 51.1092 45.6798 51.8664 45.6686H138.775C139.532 45.6798 140.255 45.9853 140.79 46.5203C141.326 47.0552 141.632 47.7774 141.643 48.5338V135.361C141.632 136.118 141.326 136.84 140.79 137.375C140.255 137.91 139.532 138.215 138.775 138.227Z" fill="#0B0B0B"/>
<path d="M632.895 135.362V48.5346C632.907 47.7782 633.212 47.056 633.748 46.5211C634.283 45.9861 635.006 45.6807 635.763 45.6694H750.352C751.117 45.6695 751.851 45.3691 752.396 44.8329C752.941 44.2968 753.252 43.5679 753.264 42.804V3.73172C753.264 3.35177 753.188 2.97568 753.041 2.62519C752.894 2.27469 752.679 1.95699 752.408 1.69035C752.137 1.42371 751.816 1.21331 751.463 1.0719C751.11 0.930482 750.732 0.860784 750.352 0.866541H678.827C631.244 0.866541 588.746 35.5973 584.227 82.9616C583.017 95.5959 584.461 108.343 588.466 120.388C592.471 132.433 598.949 143.509 607.486 152.908C616.023 162.308 626.43 169.823 638.041 174.972C649.652 180.122 662.212 182.792 674.916 182.813H750.352C751.117 182.813 751.851 182.513 752.396 181.976C752.941 181.44 753.252 180.712 753.264 179.948V140.876C753.264 140.496 753.188 140.119 753.041 139.769C752.894 139.418 752.679 139.101 752.408 138.834C752.137 138.567 751.816 138.357 751.463 138.216C751.11 138.074 750.732 138.004 750.352 138.01H635.763C635.006 137.999 634.283 137.693 633.748 137.158C633.212 136.624 632.907 135.901 632.895 135.145" fill="#0B0B0B"/>
<path d="M1239.55 135.362V48.5351C1239.55 47.7752 1239.85 47.0465 1240.39 46.5091C1240.92 45.9718 1241.65 45.6699 1242.41 45.6699H1357C1357.76 45.6699 1358.49 45.3681 1359.03 44.8308C1359.57 44.2934 1359.87 43.5644 1359.87 42.8045V3.73222C1359.88 3.35433 1359.81 2.97914 1359.66 2.62886C1359.52 2.27858 1359.31 1.96048 1359.04 1.69323C1358.78 1.42599 1358.46 1.21511 1358.11 1.07319C1357.76 0.93127 1357.38 0.861179 1357 0.867039H1285.48C1237.68 0.867039 1195.35 35.5978 1190.83 82.9621C1189.62 95.5964 1191.07 108.344 1195.07 120.389C1199.08 132.433 1205.56 143.51 1214.09 152.909C1222.63 162.308 1233.04 169.823 1244.65 174.973C1256.26 180.122 1268.82 182.793 1281.52 182.813H1357C1357.76 182.813 1358.49 182.512 1359.03 181.974C1359.57 181.437 1359.87 180.708 1359.87 179.948V140.876C1359.88 140.498 1359.81 140.123 1359.66 139.773C1359.52 139.422 1359.31 139.104 1359.04 138.837C1358.78 138.57 1358.46 138.359 1358.11 138.217C1357.76 138.075 1357.38 138.005 1357 138.011H1242.54C1242.17 138.011 1241.79 137.936 1241.45 137.792C1241.1 137.649 1240.78 137.437 1240.52 137.171C1240.25 136.905 1240.04 136.589 1239.89 136.242C1239.75 135.894 1239.68 135.522 1239.68 135.145" fill="#0B0B0B"/>
<path d="M1077.38 0.822266C1076.65 0.822266 1075.99 0.822266 1075.26 0.822266H983.35C982.589 0.822266 981.86 1.1241 981.322 1.66144C980.784 2.19879 980.482 2.92752 980.482 3.68745V262.824C980.482 263.583 980.784 264.312 981.322 264.85C981.86 265.387 982.589 265.689 983.35 265.689H1025.24C1025.62 265.695 1025.99 265.625 1026.34 265.483C1026.69 265.341 1027.01 265.13 1027.28 264.863C1027.55 264.595 1027.76 264.277 1027.9 263.927C1028.04 263.577 1028.11 263.201 1028.11 262.824V185.764C1028.12 185.008 1028.42 184.286 1028.96 183.751C1029.5 183.216 1030.22 182.91 1030.98 182.899H1075.08V182.682C1075.82 182.682 1076.47 182.899 1077.21 182.899C1100.54 181.652 1122.49 171.517 1138.56 154.581C1154.63 137.644 1163.59 115.197 1163.59 91.8605C1163.59 68.5244 1154.63 46.077 1138.56 29.1408C1122.49 12.2045 1100.54 2.06919 1077.21 0.822266M1118.06 138.227H1031.15C1030.39 138.215 1029.67 137.91 1029.13 137.375C1028.6 136.84 1028.29 136.118 1028.28 135.361V48.5338C1028.29 47.7774 1028.6 47.0552 1029.13 46.5203C1029.67 45.9853 1030.39 45.6798 1031.15 45.6686H1118.06C1118.82 45.6798 1119.54 45.9853 1120.07 46.5203C1120.61 47.0552 1120.91 47.7774 1120.93 48.5338V135.361C1120.91 136.118 1120.61 136.84 1120.07 137.375C1119.54 137.91 1118.82 138.215 1118.06 138.227Z" fill="#0B0B0B"/>
<path d="M861.86 0.807617C843.811 0.807617 826.168 6.1545 811.162 16.1722C796.155 26.19 784.459 40.4285 777.552 57.0874C770.645 73.7463 768.838 92.0775 772.359 109.762C775.88 127.447 784.571 143.692 797.333 156.442C810.096 169.192 826.355 177.875 844.057 181.393C861.759 184.911 880.107 183.106 896.781 176.205C913.456 169.305 927.708 157.62 937.735 142.627C947.762 127.634 953.114 110.008 953.114 91.9763C953.114 67.7968 943.5 44.6077 926.386 27.5103C909.273 10.4129 886.062 0.807617 861.86 0.807617ZM905.314 138.212H818.405C817.645 138.212 816.915 137.91 816.378 137.372C815.84 136.835 815.537 136.106 815.537 135.346V48.5192C815.537 47.7592 815.84 47.0305 816.378 46.4932C816.915 45.9558 817.645 45.654 818.405 45.654H905.314C906.071 45.6652 906.794 45.9707 907.33 46.5056C907.865 47.0405 908.171 47.7627 908.182 48.5192V135.346C908.171 136.103 907.865 136.825 907.33 137.36C906.794 137.895 906.071 138.201 905.314 138.212Z" fill="#0B0B0B"/>
</svg>
