<svg width="25" height="24" viewBox="0 0 25 24" fill="none" xmlns="http://www.w3.org/2000/svg">
<path d="M12.5448 0.00585938C10.9327 0.00861314 9.33904 0.360906 7.86567 1.04016C6.3923 1.71942 5.07172 2.71067 3.98847 3.95049C2.90522 5.19031 2.08317 6.65139 1.57493 8.24017C1.0667 9.82894 0.883484 11.5104 1.03701 13.1769C1.58841 19.4189 7.00317 24.0059 13.041 24.0059H24.6204C24.7165 24.0044 24.8083 23.9641 24.8762 23.8935C24.9442 23.823 24.983 23.7277 24.9844 23.6279V0.383797C24.9844 0.283558 24.946 0.187433 24.8778 0.116553C24.8095 0.0456729 24.717 0.00585938 24.6204 0.00585938H12.5448ZM18.6102 18.1304H7.58214C7.48607 18.129 7.39433 18.0887 7.32638 18.0181C7.25844 17.9475 7.21964 17.8522 7.21822 17.7525V6.29934C7.21964 6.19956 7.25844 6.1043 7.32638 6.03374C7.39433 5.96318 7.48607 5.92288 7.58214 5.92141H18.6102C18.7063 5.92288 18.798 5.96318 18.8659 6.03374C18.9339 6.1043 18.9727 6.19956 18.9741 6.29934V17.7525C18.9727 17.8522 18.9339 17.9475 18.8659 18.0181C18.798 18.0887 18.7063 18.129 18.6102 18.1304Z" fill="#0B0B0B"/>
</svg>
