<svg width="133" height="25" viewBox="0 0 133 25" fill="none" xmlns="http://www.w3.org/2000/svg">
<path d="M38.8823 0.389199L27.617 24.8399C27.5951 24.8873 27.5596 24.9276 27.5147 24.956C27.4698 24.9843 27.4175 24.9995 27.3639 24.9996H23.0788C23.0324 24.9995 22.9868 24.9881 22.9461 24.9665C22.9055 24.9448 22.871 24.9137 22.8458 24.8759C22.8207 24.838 22.8057 24.7947 22.8022 24.7498C22.7987 24.7049 22.8068 24.6598 22.8257 24.6187L27.2332 15.0228C27.2627 14.9518 27.2627 14.8725 27.2332 14.8016L20.6368 0.389199C20.6178 0.348107 20.6097 0.303066 20.6132 0.258162C20.6167 0.213258 20.6317 0.169915 20.6569 0.132075C20.682 0.0942336 20.7165 0.0630977 20.7572 0.0414835C20.7979 0.0198694 20.8435 0.00846494 20.8898 0.00831182H25.1665C25.2219 0.00782252 25.2761 0.0236121 25.322 0.0535823C25.3679 0.0835525 25.4034 0.126315 25.4238 0.176245L29.4728 9.48142C29.4929 9.53121 29.528 9.57393 29.5735 9.60406C29.6191 9.63418 29.6729 9.6503 29.7279 9.6503C29.783 9.6503 29.8368 9.63418 29.8823 9.60406C29.9279 9.57393 29.963 9.53121 29.9831 9.48142L34.0616 0.176245C34.0829 0.126956 34.1187 0.0847898 34.1644 0.0549572C34.2101 0.0251246 34.2638 0.00891148 34.3189 0.00831182H38.6293C38.6753 0.00947181 38.7203 0.0215288 38.7604 0.0434083C38.8005 0.0652878 38.8345 0.0963408 38.8594 0.133874C38.8843 0.171408 38.8995 0.214289 38.9035 0.258787C38.9075 0.303285 38.9002 0.348039 38.8823 0.389199Z" fill="#0B0B0B"/>
<path d="M55.7026 4.22665H50.8143C50.7405 4.22665 50.6697 4.25515 50.6175 4.30585C50.5653 4.35654 50.536 4.42529 50.536 4.49698V16.9189C50.536 16.9906 50.5066 17.0594 50.4544 17.11C50.4022 17.1607 50.3314 17.1892 50.2576 17.1892H46.1749C46.1382 17.1898 46.1018 17.1832 46.0677 17.1698C46.0337 17.1564 46.0028 17.1365 45.9768 17.1113C45.9509 17.0861 45.9304 17.0561 45.9166 17.023C45.9028 16.99 45.896 16.9546 45.8966 16.9189V4.49698C45.8955 4.42562 45.8658 4.35746 45.8138 4.307C45.7618 4.25653 45.6917 4.22771 45.6182 4.22665H40.7552C40.6814 4.22665 40.6106 4.19818 40.5584 4.14749C40.5062 4.0968 40.4769 4.02805 40.4769 3.95636V0.270323C40.4769 0.198633 40.5062 0.129885 40.5584 0.0791921C40.6106 0.0284993 40.6814 0 40.7552 0H55.7026C55.7764 0 55.8472 0.0284993 55.8994 0.0791921C55.9516 0.129885 55.981 0.198633 55.981 0.270323V3.95636C55.981 4.02805 55.9516 4.0968 55.8994 4.14749C55.8472 4.19818 55.7764 4.22665 55.7026 4.22665Z" fill="#0B0B0B"/>
<path d="M9.06137 0.0126953C7.82835 0.0146648 6.60933 0.266622 5.48235 0.752422C4.35538 1.23822 3.34527 1.94715 2.51669 2.83387C1.68812 3.72058 1.05934 4.76553 0.670589 5.90181C0.281842 7.03809 0.141701 8.24066 0.259134 9.43256C0.680899 13.8968 4.82263 17.1773 9.44096 17.1773H18.298C18.3715 17.1763 18.4417 17.1474 18.4937 17.097C18.5456 17.0465 18.5753 16.9784 18.5764 16.907V0.282993C18.5764 0.211303 18.5471 0.142555 18.4949 0.0918625C18.4427 0.0411697 18.3719 0.0126953 18.298 0.0126953H9.06137ZM13.7008 12.9753H5.26549C5.192 12.9742 5.12182 12.9454 5.06986 12.8949C5.01789 12.8445 4.98821 12.7763 4.98712 12.7049V4.51375C4.98821 4.44239 5.01789 4.37426 5.06986 4.32379C5.12182 4.27333 5.192 4.24451 5.26549 4.24345H13.7008C13.7743 4.24451 13.8445 4.27333 13.8964 4.32379C13.9484 4.37426 13.9781 4.44239 13.9792 4.51375V12.7049C13.9781 12.7763 13.9484 12.8445 13.8964 12.8949C13.8445 12.9454 13.7743 12.9742 13.7008 12.9753Z" fill="#0B0B0B"/>
<path d="M61.6598 12.7048V4.51359C61.6609 4.44223 61.6905 4.3741 61.7425 4.32363C61.7945 4.27316 61.8647 4.24435 61.9381 4.24329H73.0601C73.1343 4.2433 73.2056 4.21495 73.2584 4.16437C73.3113 4.11379 73.3416 4.04503 73.3427 3.97296V0.286931C73.3427 0.251086 73.3353 0.215606 73.3211 0.182541C73.3068 0.149476 73.286 0.119505 73.2597 0.0943499C73.2334 0.0691951 73.2022 0.0493467 73.1679 0.0360057C73.1337 0.0226648 73.097 0.0160896 73.0601 0.0166327H66.1178C61.4995 0.0166327 57.3746 3.2931 56.936 7.76139C56.8186 8.95329 56.9587 10.1559 57.3475 11.2922C57.7362 12.4284 58.365 13.4734 59.1936 14.3601C60.0221 15.2468 61.0323 15.9558 62.1592 16.4416C63.2862 16.9274 64.5052 17.1793 65.7383 17.1813H73.0601C73.1343 17.1813 73.2056 17.1529 73.2584 17.1023C73.3113 17.0518 73.3416 16.983 73.3427 16.911V13.2249C73.3427 13.1891 73.3353 13.1536 73.3211 13.1205C73.3068 13.0875 73.286 13.0575 73.2597 13.0323C73.2334 13.0072 73.2022 12.9873 73.1679 12.974C73.1337 12.9607 73.097 12.9541 73.0601 12.9546H61.9381C61.8647 12.9535 61.7945 12.9247 61.7425 12.8743C61.6905 12.8238 61.6609 12.7557 61.6598 12.6843" fill="#0B0B0B"/>
<path d="M120.54 12.7048V4.51359C120.54 4.4419 120.569 4.37315 120.622 4.32246C120.674 4.27176 120.745 4.24329 120.819 4.24329H131.94C132.014 4.24329 132.085 4.21482 132.137 4.16412C132.19 4.11343 132.219 4.04466 132.219 3.97297V0.286932C132.219 0.251282 132.213 0.215887 132.199 0.182842C132.185 0.149797 132.165 0.119787 132.139 0.0945758C132.113 0.0693643 132.082 0.0494702 132.048 0.0360816C132.014 0.0226931 131.977 0.0160808 131.94 0.0166336H124.998C120.359 0.0166336 116.251 3.2931 115.812 7.76139C115.695 8.95329 115.835 10.1559 116.224 11.2922C116.612 12.4284 117.241 13.4734 118.07 14.3601C118.898 15.2468 119.908 15.9558 121.035 16.4416C122.162 16.9274 123.381 17.1793 124.614 17.1813H131.94C132.014 17.1813 132.085 17.1528 132.137 17.1021C132.19 17.0514 132.219 16.9826 132.219 16.911V13.2249C132.219 13.1893 132.213 13.1539 132.199 13.1208C132.185 13.0878 132.165 13.0578 132.139 13.0325C132.113 13.0073 132.082 12.9874 132.048 12.974C132.014 12.9607 131.977 12.954 131.94 12.9546H120.831C120.795 12.9546 120.758 12.9476 120.725 12.934C120.691 12.9204 120.66 12.9005 120.634 12.8754C120.608 12.8503 120.588 12.8205 120.574 12.7877C120.56 12.7549 120.553 12.7198 120.553 12.6843" fill="#0B0B0B"/>
<path d="M104.801 0.0126953C104.73 0.0126953 104.666 0.0126953 104.595 0.0126953H95.6743C95.6005 0.0126953 95.5297 0.0411697 95.4775 0.0918625C95.4253 0.142555 95.396 0.211303 95.396 0.282993V24.7296C95.396 24.8013 95.4253 24.8701 95.4775 24.9207C95.5297 24.9714 95.6005 24.9999 95.6743 24.9999H99.7402C99.7769 25.0005 99.8133 24.9939 99.8474 24.9805C99.8814 24.9671 99.9123 24.9472 99.9383 24.922C99.9642 24.8968 99.9847 24.8668 99.9985 24.8337C100.012 24.8007 100.019 24.7652 100.019 24.7296V17.4599C100.02 17.3886 100.049 17.3204 100.101 17.27C100.153 17.2195 100.223 17.1907 100.297 17.1896H104.578V17.1691C104.65 17.1691 104.713 17.1896 104.784 17.1896C107.048 17.072 109.18 16.1158 110.739 14.5181C112.299 12.9203 113.168 10.8026 113.168 8.60114C113.168 6.39964 112.299 4.28198 110.739 2.68423C109.18 1.08649 107.048 0.130329 104.784 0.0126953M108.749 12.9753H100.314C100.24 12.9742 100.17 12.9454 100.118 12.8949C100.066 12.8445 100.037 12.7763 100.035 12.7049V4.51375C100.037 4.44239 100.066 4.37426 100.118 4.32379C100.17 4.27333 100.24 4.24451 100.314 4.24345H108.749C108.823 4.24451 108.893 4.27333 108.945 4.32379C108.997 4.37426 109.026 4.44239 109.027 4.51375V12.7049C109.026 12.7763 108.997 12.8445 108.945 12.8949C108.893 12.9454 108.823 12.9742 108.749 12.9753Z" fill="#0B0B0B"/>
<path d="M83.883 0.0112305C82.1313 0.0112305 80.4188 0.515649 78.9623 1.46071C77.5058 2.40577 76.3705 3.74902 75.7002 5.3206C75.0298 6.89218 74.8544 8.62153 75.1961 10.2899C75.5379 11.9583 76.3814 13.4908 77.6201 14.6936C78.8588 15.8965 80.437 16.7156 82.1551 17.0475C83.8732 17.3793 85.654 17.209 87.2725 16.558C88.8909 15.9071 90.2742 14.8047 91.2474 13.3903C92.2206 11.9759 92.7401 10.313 92.7401 8.61198C92.7401 6.33092 91.8069 4.14328 90.1459 2.53033C88.4849 0.917378 86.2321 0.0112305 83.883 0.0112305ZM88.1007 12.9738H79.6654C79.5915 12.9738 79.5207 12.9453 79.4685 12.8946C79.4163 12.8439 79.387 12.7752 79.387 12.7035V4.51228C79.387 4.44059 79.4163 4.37185 79.4685 4.32115C79.5207 4.27046 79.5915 4.24199 79.6654 4.24199H88.1007C88.1742 4.24304 88.2443 4.27186 88.2963 4.32233C88.3483 4.37279 88.3779 4.44092 88.379 4.51228V12.7035C88.3779 12.7748 88.3483 12.843 88.2963 12.8935C88.2443 12.9439 88.1742 12.9727 88.1007 12.9738Z" fill="#0B0B0B"/>
</svg>
