<svg width="250" height="56" viewBox="0 0 250 56" fill="none" xmlns="http://www.w3.org/2000/svg">
<path d="M0 16.8C0 7.52162 7.46192 0 16.6667 0H233.333C242.538 0 250 7.52162 250 16.8V56H0V16.8Z" fill="white"/>
<path fill-rule="evenodd" clip-rule="evenodd" d="M27.7778 26.6C27.7778 28.1464 26.5341 29.4 25 29.4C23.4659 29.4 22.2222 28.1464 22.2222 26.6C22.2222 25.0536 23.4659 23.8 25 23.8C26.5341 23.8 27.7778 25.0536 27.7778 26.6ZM26.3889 26.6C26.3889 27.3732 25.7671 28 25 28C24.2329 28 23.6111 27.3732 23.6111 26.6C23.6111 25.8268 24.2329 25.2 25 25.2C25.7671 25.2 26.3889 25.8268 26.3889 26.6Z" fill="#0B0B0B"/>
<path fill-rule="evenodd" clip-rule="evenodd" d="M30.5556 26.6C30.5556 30.8 25.6944 35 25 35C24.3056 35 19.4444 30.8 19.4444 26.6C19.4444 23.1 21.9318 21 25 21C28.0682 21 30.5556 23.1 30.5556 26.6ZM29.1667 26.6C29.1667 28.2041 28.2059 29.9852 26.9712 31.4787C26.3748 32.2002 25.7634 32.7945 25.2781 33.1974C25.1761 33.2821 25.0831 33.3555 25 33.418C24.9169 33.3555 24.8239 33.2821 24.7219 33.1974C24.2366 32.7945 23.6252 32.2002 23.0288 31.4787C21.7941 29.9852 20.8333 28.2041 20.8333 26.6C20.8333 25.2019 21.3209 24.1796 22.0281 23.5026C22.7463 22.815 23.7797 22.4 25 22.4C26.2203 22.4 27.2537 22.815 27.9719 23.5026C28.679 24.1796 29.1667 25.2019 29.1667 26.6Z" fill="#0B0B0B"/>
<path d="M68.75 21.7V27.3H74.3055V21.7H68.75ZM72.9167 25.9H70.1389V23.1H72.9167V25.9ZM68.75 28.7V34.3H74.3055V28.7H68.75ZM72.9167 32.9H70.1389V30.1H72.9167V32.9ZM75.6944 21.7V27.3H81.25V21.7H75.6944ZM79.8611 25.9H77.0833V23.1H79.8611V25.9ZM75.6944 28.7V34.3H81.25V28.7H75.6944ZM79.8611 32.9H77.0833V30.1H79.8611V32.9Z" fill="#0B0B0B"/>
<path fill-rule="evenodd" clip-rule="evenodd" d="M125 44.8C134.205 44.8 141.667 37.2784 141.667 28C141.667 18.7216 134.205 11.2 125 11.2C115.795 11.2 108.333 18.7216 108.333 28C108.333 37.2784 115.795 44.8 125 44.8ZM117.361 19.6C116.978 19.6 116.667 19.9134 116.667 20.3V35.7C116.667 36.0866 116.978 36.4 117.361 36.4H132.639C133.022 36.4 133.333 36.0866 133.333 35.7V20.3C133.333 19.9134 133.022 19.6 132.639 19.6H117.361Z" fill="#0B0B0B"/>
<path d="M179.167 23.8H177.778C177.778 22.253 176.535 21 175 21C173.465 21 172.222 22.253 172.222 23.8H170.833C170.069 23.8 169.444 24.43 169.444 25.2V33.6C169.444 34.37 170.069 35 170.833 35H179.167C179.931 35 180.556 34.37 180.556 33.6V25.2C180.556 24.43 179.931 23.8 179.167 23.8ZM175 22.4C175.764 22.4 176.389 23.03 176.389 23.8H173.611C173.611 23.03 174.236 22.4 175 22.4ZM179.167 33.6H170.833V25.2H172.222V26.6C172.222 26.985 172.535 27.3 172.917 27.3C173.299 27.3 173.611 26.985 173.611 26.6V25.2H176.389V26.6C176.389 26.985 176.701 27.3 177.083 27.3C177.465 27.3 177.778 26.985 177.778 26.6V25.2H179.167V33.6Z" fill="#0B0B0B"/>
<path d="M186.111 21C186.111 23.3196 184.246 25.2 181.944 25.2C179.643 25.2 177.778 23.3196 177.778 21C177.778 18.6804 179.643 16.8 181.944 16.8C184.246 16.8 186.111 18.6804 186.111 21Z" fill="#0B0B0B"/>
<path d="M225 23.73C225.806 23.73 226.458 24.388 226.458 25.2C226.458 26.012 225.806 26.67 225 26.67C224.194 26.67 223.542 26.012 223.542 25.2C223.542 24.388 224.194 23.73 225 23.73ZM225 30.03C227.062 30.03 229.236 31.052 229.236 31.5V32.27H220.764V31.5C220.764 31.052 222.937 30.03 225 30.03ZM225 22.4C223.465 22.4 222.222 23.653 222.222 25.2C222.222 26.747 223.465 28 225 28C226.535 28 227.778 26.747 227.778 25.2C227.778 23.653 226.535 22.4 225 22.4ZM225 28.7C223.146 28.7 219.444 29.638 219.444 31.5V32.9C219.444 33.285 219.757 33.6 220.139 33.6H229.861C230.243 33.6 230.556 33.285 230.556 32.9V31.5C230.556 29.638 226.854 28.7 225 28.7Z" fill="#0B0B0B"/>
</svg>
