<svg width="52" height="38" viewBox="0 0 52 38" fill="none" xmlns="http://www.w3.org/2000/svg">
<path d="M26.9826 28.5411C25.9777 28.4724 24.8189 28.2918 23.9049 28.0204C23.7337 27.9695 23.0248 27.7024 22.8445 27.6176C19.6625 26.1065 17.4458 22.8079 17.4458 18.9809C17.4458 13.7319 21.6112 9.45638 26.7345 9.45638C31.8122 9.45638 35.9495 13.659 36.0207 18.8486H39.3763C39.3052 11.7629 33.6634 6.02035 26.7345 6.02035C19.7643 6.02035 14.091 11.8333 14.091 18.9809C14.091 23.9085 16.794 28.1943 20.7519 30.3837C21.4665 30.7713 22.4921 31.1707 22.8404 31.2801C23.9686 31.6243 25.3532 31.8533 26.5856 31.9491C27.0041 31.9813 28.4657 31.9983 28.8916 32H52V28.5733H28.9305C28.6237 28.5733 27.2829 28.5614 26.9826 28.5411ZM28.9305 23.1606C28.6865 23.1606 27.4103 23.1521 27.1745 23.1318C26.775 23.097 26.196 23.036 25.8238 22.9486C25.4036 22.8333 25.0091 22.6807 24.8313 22.5806C23.5848 21.8895 22.7353 20.5378 22.7353 18.9809C22.7353 16.716 24.5244 14.8792 26.7345 14.8792C28.8983 14.8792 30.6576 16.6439 30.7279 18.8486H33.952C33.8842 14.8207 30.6816 11.5746 26.7345 11.5746C22.7436 11.5746 19.5087 14.8903 19.5087 18.9809C19.5087 21.8658 21.1216 24.3571 23.4706 25.5774C23.8321 25.7945 24.512 26.0217 24.7055 26.0734C25.3689 26.2524 26.2597 26.3745 26.9826 26.4288C27.2498 26.4516 28.5583 26.4618 28.8346 26.4635V26.4686H51.9992V23.1606H28.9305ZM12.0232 31.9873H8.64516V9.46401H3.70885V6H12.0232V31.9873ZM0 11.1947V14.5256H3.70885V31.9873H6.95451V11.1947H0Z" fill="#0B0B0B"/>
</svg>
