<svg width="200" height="80" viewBox="0 0 200 80" fill="none" xmlns="http://www.w3.org/2000/svg">
<g clip-path="url(#clip0_63_37)">
<path fill-rule="evenodd" clip-rule="evenodd" d="M127.685 37.0984L133.036 26.3099H133.13L139.047 37.0984H145.129L137.28 23.1582H132.141L125.045 37.0984H127.685Z" fill="#636363"/>
<path fill-rule="evenodd" clip-rule="evenodd" d="M43.5567 31.0135L51.9488 30.9171C51.8542 32.8566 50.7702 33.9476 50.2041 34.4077C48.8139 35.4986 46.8335 35.596 45.8906 35.596C44.4996 35.596 43.2977 35.4005 42.0718 34.674C41.2933 34.213 40.3977 33.4371 39.9503 32.7832L39.5727 32.2257L36.8387 33.7768C37.6404 34.6988 38.8896 35.619 40.2093 36.2729C42.2361 37.2683 44.0987 37.5107 46.3621 37.5107C48.7658 37.5107 52.5149 37.1701 55.2248 35.158C57.1106 33.7521 57.9829 31.8373 57.9829 30.1402C57.9829 28.4432 57.1106 26.5036 55.2248 25.1216C52.8909 23.3767 49.4737 22.7706 46.4326 22.7706C44.4522 22.7706 42.637 22.9644 40.7986 23.643C39.2664 24.1766 38.0646 24.9039 36.8387 25.9701L39.5727 27.4982L40.2325 26.7947C40.7745 26.1886 41.6942 25.6312 42.5192 25.2915C43.6272 24.8066 44.7826 24.6615 45.9844 24.6615C48.413 24.6615 49.8033 25.4374 50.581 26.1886C51.0997 26.6744 51.7836 27.5955 51.948 29.0015L43.5567 28.8802V31.0135Z" fill="#636363"/>
<path fill-rule="evenodd" clip-rule="evenodd" d="M155.241 24.4677C156.608 24.4677 158.164 24.7588 159.367 26.286C160.334 27.4982 160.498 28.905 160.498 30.1411C160.498 31.378 160.334 32.7593 159.367 33.9954C158.164 35.5234 156.609 35.8136 155.241 35.8136C153.874 35.8136 152.319 35.5234 151.116 33.9954C150.149 32.7593 149.985 31.378 149.985 30.1411C149.985 28.905 150.149 27.4982 151.116 26.286C152.318 24.7588 153.874 24.4677 155.241 24.4677ZM155.241 37.5116C157.788 37.5116 161.346 36.9294 163.728 35.1589C165.613 33.7777 166.51 31.8143 166.51 30.1411C166.51 28.4688 165.614 26.5045 163.728 25.1224C161.347 23.3528 157.789 22.7715 155.241 22.7715C152.72 22.7715 149.137 23.3528 146.732 25.1224C144.847 26.5045 143.974 28.4688 143.974 30.1411C143.974 31.8143 144.847 33.7777 146.732 35.1589C149.136 36.9294 152.72 37.5116 155.241 37.5116Z" fill="#636363"/>
<path fill-rule="evenodd" clip-rule="evenodd" d="M108.498 26.6744C109.016 26.5045 109.629 26.4072 110.243 26.4072H110.88V33.6556H110.243C109.63 33.6556 109.016 33.5591 108.498 33.3893C108.027 33.2433 107.601 33.0495 107.272 32.7593C106.636 32.2496 106.116 31.4011 106.116 30.019C106.116 28.6617 106.636 27.814 107.272 27.3044C107.601 27.0133 108.027 26.8195 108.498 26.6744ZM118.35 35.4261C121.392 35.2323 122.994 34.505 123.843 33.9714C125.447 32.9778 126.177 31.5718 126.177 30.0199C126.177 27.9839 124.88 26.7717 123.843 26.093C122.405 25.148 120.377 24.7588 118.35 24.6375C117.809 24.5897 117.266 24.5897 116.724 24.5897H116.135V22.6741H110.69V24.5897H110.123C109.582 24.5897 109.039 24.5897 108.497 24.6375C106.446 24.7588 104.42 25.1472 103.005 26.093C101.968 26.7717 100.671 27.9839 100.671 30.0199C100.671 31.5718 101.401 32.9778 103.005 33.9714C103.829 34.505 105.432 35.2332 108.497 35.4261C108.992 35.4508 109.534 35.4739 110.123 35.4739H110.69V37.5116H116.135V35.4739H116.724C117.314 35.4739 117.857 35.4508 118.35 35.4261ZM118.35 26.6744C118.822 26.8195 119.247 27.0133 119.578 27.3044C120.214 27.814 120.732 28.6617 120.732 30.019C120.732 31.4011 120.214 32.2496 119.578 32.7593C119.248 33.0495 118.823 33.2433 118.35 33.3893C117.809 33.5591 117.219 33.6556 116.582 33.6556H115.969V26.4072H116.582C117.219 26.4072 117.809 26.5036 118.35 26.6744Z" fill="#636363"/>
<path fill-rule="evenodd" clip-rule="evenodd" d="M88.6738 24.4677C90.0184 24.4677 91.5962 24.7588 92.7989 26.286C93.7659 27.4982 93.9302 28.905 93.9302 30.1411C93.9302 31.378 93.765 32.7593 92.7989 33.9954C91.5962 35.5234 90.0176 35.8136 88.6738 35.8136C87.3068 35.8136 85.7273 35.5234 84.5255 33.9954C83.5585 32.7593 83.4183 31.378 83.4183 30.1411C83.4183 28.905 83.5594 27.4982 84.5255 26.286C85.7273 24.7588 87.3068 24.4677 88.6738 24.4677ZM88.6738 37.5116C91.1962 37.5116 94.7793 36.9294 97.1597 35.1589C99.0223 33.7777 99.8938 31.8143 99.8938 30.1411C99.8938 28.4688 99.0214 26.5045 97.1597 25.1224C94.7793 23.3528 91.1953 22.7715 88.6738 22.7715C86.1282 22.7715 82.5451 23.3528 80.1647 25.1224C78.2789 26.5045 77.4066 28.4688 77.4066 30.1411C77.4066 31.8143 78.2789 33.7777 80.1647 35.1589C82.5451 36.9294 86.1282 37.5116 88.6738 37.5116Z" fill="#636363"/>
<path fill-rule="evenodd" clip-rule="evenodd" d="M68.1189 31.9833H69.1331C71.7493 31.9833 73.5645 31.6922 74.861 30.9162C76.4869 29.9217 76.8646 28.5644 76.8646 27.4982C76.8646 26.455 76.4869 25.0977 74.861 24.1527C73.5645 23.4006 71.8198 23.1582 68.8974 23.1582H68.1189H59.5856V37.0984H65.0313V31.9833H68.1189ZM68.1189 25.2915C68.7787 25.3162 69.6278 25.4374 70.2403 25.825C71.0654 26.3577 71.2073 27.0859 71.2073 27.5221C71.2073 27.9583 71.0886 28.7343 70.1939 29.2917C69.5805 29.704 68.8269 29.8252 68.1189 29.8739C67.9305 29.8739 67.742 29.8739 67.5528 29.8739H65.0304V25.2684H67.5528C67.718 25.2684 67.9064 25.2684 68.1189 25.2915Z" fill="#636363"/>
<path fill-rule="evenodd" clip-rule="evenodd" d="M25.9723 26.432L28.6831 31.1826H23.2607L25.8304 26.3346H25.9009L25.9723 26.432ZM29.7911 33.0743L32.1251 37.0984H38.2065L29.9563 23.1582H24.9107L17.415 37.0984H20.1258L22.2705 33.0743H29.7911Z" fill="#636363"/>
<path fill-rule="evenodd" clip-rule="evenodd" d="M165.425 25.2684H171.27V37.0984H176.716V25.2684H182.585V23.1582H165.425V25.2684Z" fill="#636363"/>
<path fill-rule="evenodd" clip-rule="evenodd" d="M176.999 46.5774H176.103L172.52 50.1423L173.721 46.5774H172.803L171.2 51.4262H172.12L175.679 47.8383L174.5 51.4262H175.419L176.999 46.5774Z" fill="#636363"/>
<path fill-rule="evenodd" clip-rule="evenodd" d="M171.435 46.5774H170.54L169.903 48.47H167.663L168.301 46.5774H167.382L165.777 51.4262H166.697L167.428 49.1717H169.668L168.913 51.4262H169.857L171.435 46.5774Z" fill="#636363"/>
<path fill-rule="evenodd" clip-rule="evenodd" d="M166.014 46.5774H165.118L161.535 50.1423L162.714 46.5774H161.818L160.216 51.4262H161.11L164.694 47.8383L163.515 51.4262H164.411L166.014 46.5774Z" fill="#636363"/>
<path fill-rule="evenodd" clip-rule="evenodd" d="M157.646 46.5774L157.104 47.9612C156.868 48.6151 156.774 48.8328 156.537 49.3416C156.231 50.0219 155.925 50.6758 155.124 50.8688L154.982 51.4988C155.453 51.4757 155.807 51.2802 156.043 51.1368C156.961 50.5299 157.268 49.4858 157.952 47.7888L158.187 47.2083H159.318L157.952 51.4245H158.847L160.451 46.5757H157.646V46.5774Z" fill="#636363"/>
<path fill-rule="evenodd" clip-rule="evenodd" d="M137.562 49.1965C137.68 49.1717 137.846 49.1717 138.033 49.1717H138.694L138.364 50.1901C138.222 50.3839 138.081 50.5051 137.892 50.6255C137.776 50.6989 137.658 50.7475 137.563 50.7706C137.398 50.844 137.234 50.8688 137.068 50.8688C136.879 50.8688 136.644 50.844 136.502 50.6502C136.383 50.4804 136.383 50.2866 136.454 50.0433C136.526 49.8512 136.644 49.6583 136.903 49.4611C137.043 49.3655 137.232 49.2451 137.562 49.1965ZM138.058 51.4262H138.859L139.896 48.2754C140.062 47.7905 140.25 47.3065 139.99 46.8933C139.779 46.5783 139.26 46.4562 138.835 46.4562C138.294 46.4562 137.891 46.5296 137.562 46.6517C136.879 46.9189 136.572 47.3807 136.548 47.7905L137.349 47.8391C137.397 47.671 137.468 47.5489 137.562 47.4507C137.776 47.1852 138.129 47.1127 138.576 47.1127C138.765 47.1127 139 47.1374 139.095 47.3082C139.237 47.4763 139.166 47.7196 139.095 47.9382L138.906 48.5665H138.222C137.987 48.5665 137.776 48.5665 137.562 48.5912C136.644 48.7116 135.866 49.1 135.536 50.0954C135.276 50.8457 135.536 51.5005 136.572 51.5005C136.879 51.5005 137.209 51.4774 137.538 51.3067H137.562C137.891 51.1385 138.151 50.8952 138.222 50.8218H138.246L138.058 51.4262Z" fill="#636363"/>
<path fill-rule="evenodd" clip-rule="evenodd" d="M153.097 49.1965C153.238 49.1717 153.38 49.1717 153.568 49.1717H154.252L153.898 50.1901C153.755 50.3839 153.615 50.5051 153.426 50.6255C153.308 50.6989 153.191 50.7475 153.097 50.7706C152.932 50.844 152.791 50.8688 152.625 50.8688C152.413 50.8688 152.179 50.844 152.059 50.6502C151.918 50.4804 151.918 50.2866 151.989 50.0433C152.059 49.8512 152.179 49.6583 152.437 49.4611C152.578 49.3655 152.766 49.2451 153.097 49.1965ZM153.591 51.4262H154.416L155.453 48.2754C155.594 47.7905 155.783 47.3065 155.525 46.8933C155.311 46.5783 154.793 46.4562 154.368 46.4562C153.85 46.4562 153.425 46.5296 153.096 46.6517C152.412 46.9189 152.129 47.3807 152.082 47.7905L152.883 47.8391C152.931 47.671 153.001 47.5489 153.096 47.4507C153.331 47.1852 153.661 47.1127 154.11 47.1127C154.298 47.1127 154.534 47.1374 154.651 47.3082C154.769 47.4763 154.723 47.7196 154.651 47.9382L154.438 48.5665H153.755C153.52 48.5665 153.308 48.5665 153.096 48.5912C152.178 48.7116 151.398 49.1 151.069 50.0954C150.809 50.8457 151.069 51.5005 152.107 51.5005C152.412 51.5005 152.742 51.4774 153.096 51.3067C153.425 51.1385 153.685 50.8952 153.755 50.8218H153.803L153.591 51.4262Z" fill="#636363"/>
<path fill-rule="evenodd" clip-rule="evenodd" d="M151.069 46.5774H150.149L146.59 50.1423L147.77 46.5774H146.85L145.247 51.4262H146.166L149.725 47.8383L148.547 51.4262H149.466L151.069 46.5774Z" fill="#636363"/>
<path fill-rule="evenodd" clip-rule="evenodd" d="M143.172 49.2699C143.337 49.2699 143.479 49.3416 143.572 49.415C143.691 49.5601 143.691 49.8034 143.597 50.0219C143.502 50.2874 143.337 50.4804 143.197 50.5785C143.197 50.5785 143.172 50.5785 143.172 50.6033C142.984 50.7236 142.724 50.7697 142.465 50.7697H141.357L141.854 49.2443H143.007C143.078 49.2451 143.126 49.2451 143.172 49.2699ZM143.172 47.2091H143.644C143.809 47.2091 144.021 47.2091 144.163 47.3543C144.304 47.5241 144.281 47.6923 144.234 47.8878C144.163 48.0816 144.069 48.2745 143.856 48.4196C143.621 48.5895 143.408 48.5895 143.172 48.5895H142.064L142.535 47.2091H143.172ZM143.172 51.3562C143.479 51.258 143.762 51.0882 143.974 50.943C144.234 50.7245 144.493 50.4078 144.634 50.0228C144.729 49.7291 144.753 49.4628 144.61 49.2221C144.517 49.0505 144.328 48.9071 144.07 48.8567L144.093 48.8336C144.399 48.7602 144.659 48.5904 144.823 48.4205C144.988 48.2523 145.13 47.9851 145.223 47.7418C145.365 47.3064 145.294 47.0632 145.13 46.8685C144.895 46.603 144.517 46.5783 144.211 46.5783H143.173H141.83L140.204 51.4271H142.537C142.748 51.4262 142.962 51.4023 143.172 51.3562Z" fill="#636363"/>
<path fill-rule="evenodd" clip-rule="evenodd" d="M127.498 47.1844C127.639 47.1357 127.78 47.111 127.897 47.111C128.816 47.111 128.605 47.9117 128.44 48.3479L128.369 48.5647H127.497H126.435L126.507 48.3479C126.743 47.6197 127.143 47.3065 127.498 47.1844ZM127.498 49.1965H129.077C129.783 47.449 129.689 46.4554 128.11 46.4554C127.921 46.4554 127.709 46.4801 127.498 46.5288C126.578 46.7473 125.752 47.5241 125.258 49.0744C124.575 51.1368 125.376 51.4988 126.46 51.4988C126.86 51.4988 127.214 51.4501 127.498 51.3554C128.252 51.0873 128.676 50.5538 128.746 50.0211L127.969 49.8973C127.921 50.0424 127.804 50.3591 127.498 50.5777C127.309 50.7228 127.049 50.8432 126.672 50.8432C126.389 50.8432 125.683 50.7697 126.083 49.6574L126.225 49.1956H127.498V49.1965Z" fill="#636363"/>
<path fill-rule="evenodd" clip-rule="evenodd" d="M124.904 46.5774H124.009L120.425 50.1423L121.603 46.5774H120.708L119.106 51.4262H120.025L123.584 47.8383L122.405 51.4262H123.325L124.904 46.5774Z" fill="#636363"/>
<path fill-rule="evenodd" clip-rule="evenodd" d="M115.712 46.5774L114.108 51.4262H115.027L115.758 49.2451H116.631C116.795 49.2451 117.007 49.2451 117.101 49.415C117.149 49.4867 117.194 49.6335 117.125 49.8751L117.006 50.5307C116.936 50.844 116.888 51.1846 117.266 51.3775C117.455 51.451 117.737 51.4996 117.903 51.4996L118.281 50.7962C118.209 50.7962 118.139 50.7962 118.067 50.7714C117.878 50.6997 117.903 50.506 117.926 50.3617L117.974 50.0236C117.997 49.8051 118.092 49.4884 117.997 49.2468C117.95 49.0769 117.761 48.9549 117.572 48.9088V48.884C117.808 48.8353 117.973 48.7124 118.114 48.5673C118.28 48.3752 118.35 48.254 118.444 48.0585L118.609 47.7205C118.679 47.5506 118.797 47.2834 119.034 47.1869C119.08 47.1622 119.152 47.1383 119.363 47.1135L119.457 46.4835C119.103 46.5322 118.75 46.5322 118.42 46.7755C118.137 46.994 118.019 47.2843 117.901 47.5275L117.76 47.793C117.642 48.038 117.57 48.2301 117.335 48.3769C117.171 48.5221 116.982 48.5221 116.817 48.5221H115.992L116.629 46.5817H115.712V46.5774Z" fill="#636363"/>
<path fill-rule="evenodd" clip-rule="evenodd" d="M112.953 50.4573C112.789 50.5538 112.575 50.6255 112.363 50.6989C112.103 50.7706 111.915 50.7954 111.68 50.7954C111.373 50.7954 111.043 50.7706 110.831 50.4804C110.572 50.1423 110.737 49.6088 110.95 49.0018C111.115 48.4196 111.304 47.8878 111.634 47.548C111.822 47.3543 112.104 47.111 112.6 47.111C112.93 47.111 113.118 47.2091 113.213 47.379C113.33 47.5728 113.26 47.7888 113.118 48.1063L113.99 48.0346C114.319 47.4994 114.273 46.9658 113.896 46.7004C113.66 46.5288 113.307 46.4554 112.931 46.4554C112.459 46.4554 111.892 46.5774 111.422 46.8668C110.549 47.4004 110.124 48.3727 109.936 48.9779C109.772 49.4867 109.537 50.4317 110.007 51.0156C110.314 51.4254 110.809 51.4988 111.351 51.4988C111.705 51.4988 112.011 51.4757 112.412 51.3554C112.623 51.2572 112.858 51.159 113.096 51.0386L112.953 50.4573Z" fill="#636363"/>
<path fill-rule="evenodd" clip-rule="evenodd" d="M108.851 44.468C108.804 44.5901 108.733 44.7113 108.616 44.8078C108.452 44.9529 108.191 45.028 108.027 45.028C107.861 45.028 107.626 44.9529 107.579 44.8078C107.507 44.7113 107.531 44.5893 107.579 44.468H106.919C106.753 44.8317 106.777 45.1954 106.989 45.3917C107.201 45.6085 107.579 45.6316 107.814 45.6316C108.098 45.6316 108.452 45.6085 108.828 45.3917C109.181 45.1954 109.418 44.8317 109.511 44.468H108.851Z" fill="#636363"/>
<path fill-rule="evenodd" clip-rule="evenodd" d="M109.56 46.5774H108.663L105.08 50.1423L106.258 46.5774H105.363L103.76 51.4262H104.679L108.239 47.8383L107.061 51.4262H107.98L109.56 46.5774Z" fill="#636363"/>
<path fill-rule="evenodd" clip-rule="evenodd" d="M103.995 46.5774H103.099L99.5169 50.1423L100.696 46.5774H99.7991L98.1964 51.4262H99.0928L102.653 47.8383L101.473 51.4262H102.393L103.995 46.5774Z" fill="#636363"/>
<path fill-rule="evenodd" clip-rule="evenodd" d="M97.207 50.4573C96.9954 50.5538 96.8294 50.6255 96.5945 50.6989C96.3347 50.7706 96.1463 50.7954 95.8865 50.7954C95.6043 50.7954 95.2507 50.7706 95.0615 50.4804C94.8266 50.1423 94.9677 49.6088 95.1802 49.0018C95.3686 48.4196 95.5578 47.8878 95.8873 47.548C96.0525 47.3543 96.3588 47.111 96.8302 47.111C97.1597 47.111 97.349 47.2091 97.4668 47.379C97.5606 47.5728 97.4909 47.7888 97.373 48.1063L98.2213 48.0346C98.5508 47.4994 98.5276 46.9658 98.1508 46.7004C97.915 46.5288 97.5382 46.4554 97.1606 46.4554C96.6891 46.4554 96.1231 46.5774 95.6525 46.8668C94.7801 47.4004 94.3792 48.3727 94.1668 48.9779C94.0016 49.4867 93.7659 50.4317 94.2373 51.0156C94.5444 51.4254 95.0623 51.4988 95.5811 51.4988C95.9347 51.4988 96.265 51.4757 96.6418 51.3554C96.8302 51.2572 97.09 51.159 97.3017 51.0386L97.207 50.4573Z" fill="#636363"/>
<path fill-rule="evenodd" clip-rule="evenodd" d="M92.5632 50.4573C92.3515 50.5538 92.1631 50.6255 91.9507 50.6989C91.6909 50.7706 91.5025 50.7954 91.2435 50.7954C90.9605 50.7954 90.6069 50.7706 90.4185 50.4804C90.1587 50.1423 90.3239 49.6088 90.5363 49.0018C90.7007 48.4196 90.8899 47.8878 91.2435 47.548C91.4087 47.3543 91.6917 47.111 92.1864 47.111C92.4926 47.111 92.7043 47.2091 92.7989 47.379C92.8935 47.5728 92.8462 47.7888 92.7043 48.1063L93.5775 48.0346C93.907 47.4994 93.8597 46.9658 93.5069 46.7004C93.2704 46.5288 92.8935 46.4554 92.5167 46.4554C92.0453 46.4554 91.4792 46.5774 91.0078 46.8668C90.1354 47.4004 89.7346 48.3727 89.5221 48.9779C89.3577 49.4867 89.122 50.4317 89.5935 51.0156C89.8997 51.4254 90.4185 51.4988 90.9372 51.4988C91.2908 51.4988 91.6203 51.4757 91.998 51.3554C92.1872 51.2572 92.4462 51.159 92.6578 51.0386L92.5632 50.4573Z" fill="#636363"/>
<path fill-rule="evenodd" clip-rule="evenodd" d="M86.4585 47.2561C86.6229 47.1844 86.8354 47.111 87.0952 47.111C87.472 47.111 87.6604 47.2808 87.7318 47.426C87.9202 47.7896 87.755 48.3249 87.6845 48.5647L87.3782 49.415C87.3076 49.6583 87.1184 50.1901 86.7183 50.5307C86.6478 50.6041 86.5772 50.6511 86.4594 50.7245C86.2942 50.7962 86.105 50.8696 85.8468 50.8696C85.4451 50.8696 85.2575 50.6997 85.187 50.5316C85.0218 50.1918 85.187 49.66 85.2575 49.4158L85.5397 48.5656C85.6344 48.3257 85.8228 47.7905 86.2237 47.4268C86.2925 47.3799 86.3639 47.3065 86.4585 47.2561ZM87.3068 46.4562C87.0005 46.4562 86.7175 46.5049 86.4585 46.5783C86.1282 46.7021 85.846 46.8685 85.5862 47.0888C84.9264 47.6206 84.5969 48.3744 84.4076 49.0027C84.1951 49.5866 84.0067 50.3369 84.3138 50.8952C84.5255 51.2589 84.9264 51.5005 85.6335 51.5005C85.9398 51.5005 86.2228 51.4774 86.4585 51.3784C86.8121 51.2819 87.0952 51.1129 87.3541 50.8952C88.014 50.3369 88.3443 49.5866 88.556 49.0027C88.7452 48.3744 88.9095 47.6206 88.6033 47.0888C88.4149 46.7225 88.014 46.4562 87.3068 46.4562Z" fill="#636363"/>
<path fill-rule="evenodd" clip-rule="evenodd" d="M82.6862 45.2201H83.2755C83.5826 45.2201 83.9353 45.3183 84.0764 45.5121C84.1711 45.6085 84.3362 45.8501 84.1711 46.3358C84.0059 46.8463 83.6996 47.1366 83.5585 47.233C83.2523 47.4746 82.9452 47.5728 82.6862 47.5728C82.6165 47.5975 82.5451 47.5975 82.4745 47.5975H81.1308L81.9085 45.2201H82.6862ZM82.6862 48.3735C83.1103 48.3488 83.7469 48.2019 84.313 47.7418C84.7604 47.4268 85.138 46.8933 85.3264 46.3367C85.4435 45.9483 85.5381 45.32 85.1148 44.8812C84.6906 44.4697 84.0773 44.4211 83.5112 44.4211H82.6862H81.1773L78.8674 51.4271H79.8816L80.871 48.3974H82.3326C82.4272 48.3966 82.5451 48.3966 82.6862 48.3735Z" fill="#636363"/>
<path fill-rule="evenodd" clip-rule="evenodd" d="M182.585 46.5774H181.666L178.106 50.1423L179.285 46.5774H178.365L176.763 51.4262H177.682L181.241 47.8383L180.063 51.4262H180.982L182.585 46.5774Z" fill="#636363"/>
<path fill-rule="evenodd" clip-rule="evenodd" d="M26.4429 53.7772L24.4866 52.9047L32.5957 51.888C32.7368 52.1296 32.8787 52.3481 33.0439 52.5667L26.4429 53.7772ZM48.1997 53.7772L50.156 52.8569L42.0942 51.8633C42.0237 52.1305 41.8112 52.3481 41.6701 52.5667L48.1997 53.7772ZM47.0219 53.924L44.5701 54.7725L41.0816 53.6824L40.7745 53.586C40.8924 53.4878 40.987 53.3905 41.0816 53.271C41.2227 53.1489 41.3406 52.979 41.4825 52.8578L47.0219 53.924ZM53.5042 51.573L51.2649 52.6401L42.3075 51.573C42.3781 51.3562 42.4495 51.1377 42.52 50.9174L53.5042 51.573ZM54.3052 51.258L57.2276 49.3424H41.3879C41.3879 50.0228 41.2933 50.605 41.0816 51.1129C40.4682 52.7366 38.9369 53.5125 37.4039 53.4869C35.8958 53.4383 34.3636 52.6401 33.6797 51.159C33.444 50.6255 33.3029 50.0433 33.3029 49.3416H17.415L20.315 51.2572L32.4546 50.6033C32.6895 51.4988 33.1136 52.2756 33.6797 52.8561C34.6466 53.9001 36.0369 54.4814 37.4039 54.4814C38.7477 54.5062 40.1155 53.9983 41.0816 52.8808C41.6004 52.2986 42.0004 51.5466 42.2361 50.6502L54.3052 51.258ZM41.0816 56.2016L41.3879 56.7855L41.0816 56.9323L40.2566 57.319L39.3137 55.4034C38.7252 55.6219 38.0646 55.7431 37.4039 55.7671C36.6967 55.7918 35.9663 55.6936 35.3297 55.4751L34.5279 57.319C34.2681 57.342 33.9146 57.319 33.6797 57.1508C33.5618 57.0774 33.444 56.9553 33.3975 56.7855L33.6797 56.3006L34.3636 55.038C34.1511 54.8946 33.9627 54.7981 33.7743 54.6027L34.3404 53.901C35.3065 54.5079 36.3672 54.846 37.4039 54.846C38.4414 54.8707 39.4781 54.5292 40.445 53.8275L41.0824 54.0213L41.3414 54.1195C41.2476 54.1912 41.1762 54.2646 41.0824 54.338C40.8932 54.5301 40.7289 54.7247 40.4226 54.8946L41.0816 56.2016ZM41.0816 46.2872C41.6942 47.0392 42.1415 47.9612 42.3781 49.0266H41.3646C41.2941 48.7099 41.2003 48.3966 41.0824 48.1063C40.3985 46.2641 39.0074 44.9538 37.4047 43.8611C37.1931 43.7407 37.0047 43.5956 36.7922 43.4744C37.0047 43.5478 37.1931 43.6212 37.4047 43.6946C38.8655 44.2981 40.162 45.1236 41.0816 46.2872ZM38.3468 53.1233C38.6066 53.0746 39.0066 52.9295 39.3137 52.6879L37.7102 49.415L39.3843 48.5895L37.9699 47.3286L37.4039 47.5975L34.9761 48.7346L35.6833 50.3839L36.8387 49.852L38.3468 53.1233ZM33.9627 53.5851C33.8681 53.5117 33.7735 53.4152 33.6797 53.3418C33.4913 53.1736 33.3261 53.0038 33.2082 52.833L27.673 53.9086L30.0293 54.7222L33.9627 53.5851ZM32.4546 51.573C32.36 51.3562 32.2894 51.1377 32.218 50.9174L21.1392 51.573L23.3785 52.6888L32.4546 51.573Z" fill="#636363"/>
</g>
<defs>
<clipPath id="clip0_63_37">
<rect width="166" height="35" fill="white" transform="translate(17 22.5)"/>
</clipPath>
</defs>
</svg>
